<mxfile host="app.diagrams.net" modified="2024-03-12T16:14:22.054Z" agent="Mozilla/5.0 (Windows NT 10.0; Win64; x64) AppleWebKit/537.36 (KHTML, like Gecko) Chrome/120.0.0.0 YaBrowser/24.1.0.0 Safari/537.36" etag="7nVEltAPXxDPUCHjfXxe" version="24.0.2" type="device">
  <diagram name="Страница — 1" id="_yZNcCD87sIEQzmYxweY">
    <mxGraphModel dx="2369" dy="895" grid="1" gridSize="10" guides="1" tooltips="1" connect="1" arrows="1" fold="1" page="1" pageScale="1" pageWidth="827" pageHeight="1169" math="0" shadow="0">
      <root>
        <mxCell id="0" />
        <mxCell id="1" parent="0" />
        <mxCell id="ywcK5AgZ8occUSf9UA6o-1" value="&lt;font style=&quot;font-size: 14px;&quot;&gt;Договор&lt;/font&gt;" style="rounded=1;whiteSpace=wrap;html=1;fillColor=#e6d0de;gradientColor=#d5739d;strokeColor=#FF0000;glass=0;shadow=1;fontStyle=1;" vertex="1" parent="1">
          <mxGeometry x="354" y="630" width="120" height="50" as="geometry" />
        </mxCell>
        <mxCell id="ywcK5AgZ8occUSf9UA6o-2" value="&lt;font style=&quot;font-size: 14px;&quot;&gt;Клиент&lt;/font&gt;" style="rounded=1;whiteSpace=wrap;html=1;fillColor=#e6d0de;gradientColor=#d5739d;strokeColor=#FF0000;glass=0;shadow=1;fontStyle=1;" vertex="1" parent="1">
          <mxGeometry x="204" y="710" width="90" height="40" as="geometry" />
        </mxCell>
        <mxCell id="ywcK5AgZ8occUSf9UA6o-3" value="&lt;font style=&quot;font-size: 14px;&quot;&gt;Квартира&lt;/font&gt;" style="rounded=1;whiteSpace=wrap;html=1;fillColor=#e6d0de;gradientColor=#d5739d;strokeColor=#FF0000;glass=0;shadow=1;fontStyle=1;" vertex="1" parent="1">
          <mxGeometry x="534" y="560" width="90" height="40" as="geometry" />
        </mxCell>
        <mxCell id="ywcK5AgZ8occUSf9UA6o-4" value="" style="endArrow=none;html=1;rounded=1;exitX=1;exitY=0.5;exitDx=0;exitDy=0;curved=1;entryX=0.45;entryY=1.02;entryDx=0;entryDy=0;entryPerimeter=0;strokeColor=#FF0000;" edge="1" parent="1" source="ywcK5AgZ8occUSf9UA6o-2" target="ywcK5AgZ8occUSf9UA6o-1">
          <mxGeometry width="50" height="50" relative="1" as="geometry">
            <mxPoint x="364" y="730" as="sourcePoint" />
            <mxPoint x="414" y="680" as="targetPoint" />
            <Array as="points">
              <mxPoint x="374" y="730" />
            </Array>
          </mxGeometry>
        </mxCell>
        <mxCell id="ywcK5AgZ8occUSf9UA6o-5" value="" style="endArrow=none;html=1;rounded=1;exitX=1;exitY=0.5;exitDx=0;exitDy=0;curved=1;strokeColor=#FF0000;" edge="1" parent="1">
          <mxGeometry width="50" height="50" relative="1" as="geometry">
            <mxPoint x="424" y="630" as="sourcePoint" />
            <mxPoint x="534" y="580" as="targetPoint" />
            <Array as="points">
              <mxPoint x="474" y="580" />
            </Array>
          </mxGeometry>
        </mxCell>
        <mxCell id="ywcK5AgZ8occUSf9UA6o-6" value="&lt;font style=&quot;font-size: 14px;&quot;&gt;Скидка&lt;/font&gt;" style="rounded=1;whiteSpace=wrap;html=1;fillColor=#e6d0de;gradientColor=#d5739d;strokeColor=#FF0000;glass=0;shadow=1;fontStyle=1;" vertex="1" parent="1">
          <mxGeometry x="254" y="550" width="90" height="40" as="geometry" />
        </mxCell>
        <mxCell id="ywcK5AgZ8occUSf9UA6o-7" value="&lt;font style=&quot;font-size: 14px;&quot;&gt;Дата&lt;/font&gt;" style="rounded=1;whiteSpace=wrap;html=1;fillColor=#e6d0de;gradientColor=#d5739d;strokeColor=#FF0000;glass=0;shadow=1;fontStyle=1;" vertex="1" parent="1">
          <mxGeometry x="484" y="720" width="90" height="40" as="geometry" />
        </mxCell>
        <mxCell id="ywcK5AgZ8occUSf9UA6o-8" value="" style="endArrow=none;html=1;rounded=1;exitX=0;exitY=0.5;exitDx=0;exitDy=0;entryX=0.5;entryY=1;entryDx=0;entryDy=0;curved=1;strokeColor=#FF0000;" edge="1" parent="1" source="ywcK5AgZ8occUSf9UA6o-1" target="ywcK5AgZ8occUSf9UA6o-6">
          <mxGeometry width="50" height="50" relative="1" as="geometry">
            <mxPoint x="284" y="650" as="sourcePoint" />
            <mxPoint x="334" y="600" as="targetPoint" />
            <Array as="points">
              <mxPoint x="294" y="640" />
            </Array>
          </mxGeometry>
        </mxCell>
        <mxCell id="ywcK5AgZ8occUSf9UA6o-9" value="" style="endArrow=none;html=1;rounded=1;entryX=0.5;entryY=1;entryDx=0;entryDy=0;curved=1;strokeColor=#FF0000;" edge="1" parent="1">
          <mxGeometry width="50" height="50" relative="1" as="geometry">
            <mxPoint x="529" y="720" as="sourcePoint" />
            <mxPoint x="474" y="655" as="targetPoint" />
            <Array as="points">
              <mxPoint x="524" y="670" />
            </Array>
          </mxGeometry>
        </mxCell>
        <mxCell id="ywcK5AgZ8occUSf9UA6o-10" value="&lt;font style=&quot;font-size: 14px;&quot;&gt;Район&lt;/font&gt;" style="rounded=1;whiteSpace=wrap;html=1;fillColor=#e6d0de;gradientColor=#d5739d;strokeColor=#FF0000;glass=0;shadow=1;fontStyle=1;" vertex="1" parent="1">
          <mxGeometry x="674" y="520" width="80" height="30" as="geometry" />
        </mxCell>
        <mxCell id="ywcK5AgZ8occUSf9UA6o-11" value="&lt;font style=&quot;font-size: 14px;&quot;&gt;Фото&lt;/font&gt;" style="rounded=1;whiteSpace=wrap;html=1;fillColor=#e6d0de;gradientColor=#d5739d;strokeColor=#FF0000;glass=0;shadow=1;fontStyle=1;" vertex="1" parent="1">
          <mxGeometry x="674" y="610" width="80" height="30" as="geometry" />
        </mxCell>
        <mxCell id="ywcK5AgZ8occUSf9UA6o-12" value="&lt;font style=&quot;font-size: 14px;&quot;&gt;Стоимость&lt;/font&gt;" style="rounded=0;whiteSpace=wrap;html=1;fillColor=#ffcccc;strokeColor=#FF0000;" vertex="1" parent="1">
          <mxGeometry x="674" y="570" width="80" height="20" as="geometry" />
        </mxCell>
        <mxCell id="ywcK5AgZ8occUSf9UA6o-13" value="" style="endArrow=none;html=1;rounded=1;curved=1;entryX=0;entryY=0.5;entryDx=0;entryDy=0;strokeColor=#FF0000;" edge="1" parent="1" target="ywcK5AgZ8occUSf9UA6o-10">
          <mxGeometry width="50" height="50" relative="1" as="geometry">
            <mxPoint x="574" y="560" as="sourcePoint" />
            <mxPoint x="624" y="510" as="targetPoint" />
            <Array as="points">
              <mxPoint x="604" y="535" />
            </Array>
          </mxGeometry>
        </mxCell>
        <mxCell id="ywcK5AgZ8occUSf9UA6o-14" value="" style="endArrow=none;html=1;rounded=1;curved=1;entryX=0;entryY=0.5;entryDx=0;entryDy=0;strokeColor=#FF0000;" edge="1" parent="1" target="ywcK5AgZ8occUSf9UA6o-11">
          <mxGeometry width="50" height="50" relative="1" as="geometry">
            <mxPoint x="574" y="600" as="sourcePoint" />
            <mxPoint x="669" y="575" as="targetPoint" />
            <Array as="points">
              <mxPoint x="594" y="625" />
            </Array>
          </mxGeometry>
        </mxCell>
        <mxCell id="ywcK5AgZ8occUSf9UA6o-15" value="" style="endArrow=none;html=1;rounded=1;entryX=0;entryY=0.5;entryDx=0;entryDy=0;exitX=1;exitY=0.5;exitDx=0;exitDy=0;strokeColor=#FF0000;" edge="1" parent="1" source="ywcK5AgZ8occUSf9UA6o-3" target="ywcK5AgZ8occUSf9UA6o-12">
          <mxGeometry width="50" height="50" relative="1" as="geometry">
            <mxPoint x="624" y="610" as="sourcePoint" />
            <mxPoint x="674" y="560" as="targetPoint" />
          </mxGeometry>
        </mxCell>
        <mxCell id="ywcK5AgZ8occUSf9UA6o-16" value="&lt;font style=&quot;font-size: 14px;&quot;&gt;Оплач мес&lt;/font&gt;" style="rounded=0;whiteSpace=wrap;html=1;fillColor=#ffcccc;strokeColor=#FF0000;" vertex="1" parent="1">
          <mxGeometry x="404" y="790" width="80" height="20" as="geometry" />
        </mxCell>
        <mxCell id="ywcK5AgZ8occUSf9UA6o-17" value="&lt;font style=&quot;font-size: 14px;&quot;&gt;Дата оформ&lt;/font&gt;" style="rounded=0;whiteSpace=wrap;html=1;fillColor=#ffcccc;strokeColor=#FF0000;" vertex="1" parent="1">
          <mxGeometry x="484" y="830" width="90" height="20" as="geometry" />
        </mxCell>
        <mxCell id="ywcK5AgZ8occUSf9UA6o-18" value="&lt;font style=&quot;font-size: 14px;&quot;&gt;Догов мес&lt;/font&gt;" style="rounded=0;whiteSpace=wrap;html=1;fillColor=#ffcccc;strokeColor=#FF0000;" vertex="1" parent="1">
          <mxGeometry x="574" y="790" width="80" height="20" as="geometry" />
        </mxCell>
        <mxCell id="ywcK5AgZ8occUSf9UA6o-19" value="" style="endArrow=none;html=1;rounded=1;entryX=0;entryY=0.5;entryDx=0;entryDy=0;curved=1;strokeColor=#FF0000;" edge="1" parent="1" target="ywcK5AgZ8occUSf9UA6o-7">
          <mxGeometry width="50" height="50" relative="1" as="geometry">
            <mxPoint x="428" y="790" as="sourcePoint" />
            <mxPoint x="478" y="740" as="targetPoint" />
            <Array as="points">
              <mxPoint x="434" y="750" />
            </Array>
          </mxGeometry>
        </mxCell>
        <mxCell id="ywcK5AgZ8occUSf9UA6o-20" value="" style="endArrow=none;html=1;rounded=1;entryX=1;entryY=0.5;entryDx=0;entryDy=0;curved=1;exitX=0.75;exitY=0;exitDx=0;exitDy=0;strokeColor=#FF0000;" edge="1" parent="1" source="ywcK5AgZ8occUSf9UA6o-18" target="ywcK5AgZ8occUSf9UA6o-7">
          <mxGeometry width="50" height="50" relative="1" as="geometry">
            <mxPoint x="614" y="790" as="sourcePoint" />
            <mxPoint x="664" y="740" as="targetPoint" />
            <Array as="points">
              <mxPoint x="624" y="750" />
            </Array>
          </mxGeometry>
        </mxCell>
        <mxCell id="ywcK5AgZ8occUSf9UA6o-21" value="" style="endArrow=none;html=1;rounded=1;strokeColor=#FF0000;" edge="1" parent="1">
          <mxGeometry width="50" height="50" relative="1" as="geometry">
            <mxPoint x="534" y="830" as="sourcePoint" />
            <mxPoint x="534" y="760" as="targetPoint" />
          </mxGeometry>
        </mxCell>
        <mxCell id="ywcK5AgZ8occUSf9UA6o-22" value="&lt;span style=&quot;font-size: 14px;&quot;&gt;Итог скидка&lt;/span&gt;" style="rounded=0;whiteSpace=wrap;html=1;fillColor=#ffcccc;strokeColor=#FF0000;" vertex="1" parent="1">
          <mxGeometry x="254" y="490" width="90" height="20" as="geometry" />
        </mxCell>
        <mxCell id="ywcK5AgZ8occUSf9UA6o-23" value="" style="endArrow=none;html=1;rounded=1;exitX=0.5;exitY=0;exitDx=0;exitDy=0;strokeColor=#FF0000;" edge="1" parent="1" source="ywcK5AgZ8occUSf9UA6o-6">
          <mxGeometry width="50" height="50" relative="1" as="geometry">
            <mxPoint x="294" y="550" as="sourcePoint" />
            <mxPoint x="299" y="510" as="targetPoint" />
          </mxGeometry>
        </mxCell>
        <mxCell id="ywcK5AgZ8occUSf9UA6o-24" value="&lt;font style=&quot;font-size: 14px;&quot;&gt;ФИО&lt;/font&gt;" style="rounded=0;whiteSpace=wrap;html=1;fillColor=#ffcccc;strokeColor=#FF0000;" vertex="1" parent="1">
          <mxGeometry x="74" y="660" width="80" height="20" as="geometry" />
        </mxCell>
        <mxCell id="ywcK5AgZ8occUSf9UA6o-25" value="&lt;font style=&quot;font-size: 14px;&quot;&gt;Дата рожд&lt;/font&gt;" style="rounded=0;whiteSpace=wrap;html=1;fillColor=#ffcccc;strokeColor=#FF0000;" vertex="1" parent="1">
          <mxGeometry x="74" y="740" width="80" height="20" as="geometry" />
        </mxCell>
        <mxCell id="ywcK5AgZ8occUSf9UA6o-26" value="&lt;font style=&quot;font-size: 14px;&quot;&gt;Профессия&lt;/font&gt;" style="rounded=0;whiteSpace=wrap;html=1;fillColor=#ffcccc;strokeColor=#FF0000;" vertex="1" parent="1">
          <mxGeometry x="74" y="780" width="80" height="20" as="geometry" />
        </mxCell>
        <mxCell id="ywcK5AgZ8occUSf9UA6o-27" value="&lt;font style=&quot;font-size: 14px;&quot;&gt;Паспорт&lt;/font&gt;" style="rounded=0;whiteSpace=wrap;html=1;fillColor=#ffcccc;strokeColor=#FF0000;" vertex="1" parent="1">
          <mxGeometry x="74" y="700" width="80" height="20" as="geometry" />
        </mxCell>
        <mxCell id="ywcK5AgZ8occUSf9UA6o-28" value="" style="endArrow=none;html=1;rounded=1;entryX=1;entryY=0.5;entryDx=0;entryDy=0;curved=1;strokeColor=#FF0000;" edge="1" parent="1" target="ywcK5AgZ8occUSf9UA6o-24">
          <mxGeometry width="50" height="50" relative="1" as="geometry">
            <mxPoint x="244" y="710" as="sourcePoint" />
            <mxPoint x="294" y="660" as="targetPoint" />
            <Array as="points">
              <mxPoint x="224" y="670" />
            </Array>
          </mxGeometry>
        </mxCell>
        <mxCell id="ywcK5AgZ8occUSf9UA6o-29" value="" style="endArrow=none;html=1;rounded=1;entryX=1;entryY=0.5;entryDx=0;entryDy=0;curved=1;strokeColor=#FF0000;" edge="1" parent="1">
          <mxGeometry width="50" height="50" relative="1" as="geometry">
            <mxPoint x="244" y="750" as="sourcePoint" />
            <mxPoint x="154" y="790" as="targetPoint" />
            <Array as="points">
              <mxPoint x="224" y="790" />
            </Array>
          </mxGeometry>
        </mxCell>
        <mxCell id="ywcK5AgZ8occUSf9UA6o-30" value="" style="endArrow=none;html=1;rounded=1;entryX=1;entryY=0.5;entryDx=0;entryDy=0;curved=1;exitX=0;exitY=0.5;exitDx=0;exitDy=0;strokeColor=#FF0000;" edge="1" parent="1" source="ywcK5AgZ8occUSf9UA6o-2" target="ywcK5AgZ8occUSf9UA6o-27">
          <mxGeometry width="50" height="50" relative="1" as="geometry">
            <mxPoint x="214" y="710" as="sourcePoint" />
            <mxPoint x="264" y="660" as="targetPoint" />
            <Array as="points">
              <mxPoint x="194" y="710" />
            </Array>
          </mxGeometry>
        </mxCell>
        <mxCell id="ywcK5AgZ8occUSf9UA6o-31" value="" style="endArrow=none;html=1;rounded=1;entryX=1;entryY=0.5;entryDx=0;entryDy=0;curved=1;exitX=0;exitY=0.5;exitDx=0;exitDy=0;strokeColor=#FF0000;" edge="1" parent="1" source="ywcK5AgZ8occUSf9UA6o-2">
          <mxGeometry width="50" height="50" relative="1" as="geometry">
            <mxPoint x="204" y="770" as="sourcePoint" />
            <mxPoint x="154" y="750" as="targetPoint" />
            <Array as="points">
              <mxPoint x="194" y="750" />
            </Array>
          </mxGeometry>
        </mxCell>
        <mxCell id="ywcK5AgZ8occUSf9UA6o-32" value="&lt;font style=&quot;font-size: 14px;&quot;&gt;Квартира&lt;/font&gt;" style="rounded=1;whiteSpace=wrap;html=1;fillColor=#d5e8d4;strokeColor=#82b366;gradientColor=#97d077;" vertex="1" parent="1">
          <mxGeometry x="404" y="70" width="120" height="60" as="geometry" />
        </mxCell>
        <mxCell id="ywcK5AgZ8occUSf9UA6o-33" value="&lt;font style=&quot;font-size: 13px;&quot;&gt;Фотокаталог&lt;/font&gt;" style="rounded=1;whiteSpace=wrap;html=1;fillColor=#d5e8d4;strokeColor=#82b366;gradientColor=#97d077;" vertex="1" parent="1">
          <mxGeometry x="244" y="130" width="80" height="40" as="geometry" />
        </mxCell>
        <mxCell id="ywcK5AgZ8occUSf9UA6o-34" value="&lt;font style=&quot;font-size: 14px;&quot;&gt;Район&lt;/font&gt;" style="rounded=1;whiteSpace=wrap;html=1;fillColor=#d5e8d4;strokeColor=#82b366;gradientColor=#97d077;" vertex="1" parent="1">
          <mxGeometry x="604" y="30" width="80" height="40" as="geometry" />
        </mxCell>
        <mxCell id="ywcK5AgZ8occUSf9UA6o-35" value="Метро" style="rounded=0;whiteSpace=wrap;html=1;strokeColor=#36393d;fillColor=#cdeb8b;" vertex="1" parent="1">
          <mxGeometry x="604" y="140" width="80" height="20" as="geometry" />
        </mxCell>
        <mxCell id="ywcK5AgZ8occUSf9UA6o-36" value="" style="endArrow=none;html=1;rounded=0;entryX=0;entryY=0.25;entryDx=0;entryDy=0;curved=1;exitX=1;exitY=0.5;exitDx=0;exitDy=0;strokeColor=#82B366;" edge="1" parent="1" source="ywcK5AgZ8occUSf9UA6o-33">
          <mxGeometry width="50" height="50" relative="1" as="geometry">
            <mxPoint x="334" y="175" as="sourcePoint" />
            <mxPoint x="464" y="130" as="targetPoint" />
            <Array as="points">
              <mxPoint x="414" y="170" />
            </Array>
          </mxGeometry>
        </mxCell>
        <mxCell id="ywcK5AgZ8occUSf9UA6o-37" value="" style="endArrow=none;html=1;rounded=0;curved=1;entryX=0;entryY=0.5;entryDx=0;entryDy=0;exitX=0.5;exitY=0;exitDx=0;exitDy=0;strokeColor=#82B366;" edge="1" parent="1" source="ywcK5AgZ8occUSf9UA6o-32" target="ywcK5AgZ8occUSf9UA6o-34">
          <mxGeometry width="50" height="50" relative="1" as="geometry">
            <mxPoint x="478" y="70" as="sourcePoint" />
            <mxPoint x="584" y="40" as="targetPoint" />
            <Array as="points">
              <mxPoint x="524" y="30" />
            </Array>
          </mxGeometry>
        </mxCell>
        <mxCell id="ywcK5AgZ8occUSf9UA6o-38" value="Площадь" style="rounded=0;whiteSpace=wrap;html=1;strokeColor=#36393d;fillColor=#cdeb8b;" vertex="1" parent="1">
          <mxGeometry x="604" y="170" width="80" height="20" as="geometry" />
        </mxCell>
        <mxCell id="ywcK5AgZ8occUSf9UA6o-39" value="Этаж" style="rounded=0;whiteSpace=wrap;html=1;strokeColor=#36393d;fillColor=#cdeb8b;" vertex="1" parent="1">
          <mxGeometry x="604" y="200" width="80" height="20" as="geometry" />
        </mxCell>
        <mxCell id="ywcK5AgZ8occUSf9UA6o-40" value="Год" style="rounded=0;whiteSpace=wrap;html=1;strokeColor=#36393d;fillColor=#cdeb8b;" vertex="1" parent="1">
          <mxGeometry x="604" y="230" width="80" height="20" as="geometry" />
        </mxCell>
        <mxCell id="ywcK5AgZ8occUSf9UA6o-41" value="Кол Комнат" style="rounded=0;whiteSpace=wrap;html=1;strokeColor=#36393d;fillColor=#cdeb8b;" vertex="1" parent="1">
          <mxGeometry x="604" y="260" width="80" height="20" as="geometry" />
        </mxCell>
        <mxCell id="ywcK5AgZ8occUSf9UA6o-42" style="edgeStyle=orthogonalEdgeStyle;rounded=0;orthogonalLoop=1;jettySize=auto;html=1;exitX=0.5;exitY=0;exitDx=0;exitDy=0;strokeColor=#82B366;" edge="1" parent="1" source="ywcK5AgZ8occUSf9UA6o-43">
          <mxGeometry relative="1" as="geometry">
            <mxPoint x="654" y="330" as="targetPoint" />
          </mxGeometry>
        </mxCell>
        <mxCell id="ywcK5AgZ8occUSf9UA6o-43" value="Телевидение" style="rounded=0;whiteSpace=wrap;html=1;strokeColor=#36393d;fillColor=#cdeb8b;" vertex="1" parent="1">
          <mxGeometry x="604" y="320" width="80" height="20" as="geometry" />
        </mxCell>
        <mxCell id="ywcK5AgZ8occUSf9UA6o-44" value="Кол Ванных" style="rounded=0;whiteSpace=wrap;html=1;strokeColor=#36393d;fillColor=#cdeb8b;" vertex="1" parent="1">
          <mxGeometry x="604" y="290" width="80" height="20" as="geometry" />
        </mxCell>
        <mxCell id="ywcK5AgZ8occUSf9UA6o-45" value="Интернет" style="rounded=0;whiteSpace=wrap;html=1;strokeColor=#36393d;fillColor=#cdeb8b;" vertex="1" parent="1">
          <mxGeometry x="604" y="350" width="80" height="20" as="geometry" />
        </mxCell>
        <mxCell id="ywcK5AgZ8occUSf9UA6o-46" value="Парковка" style="rounded=0;whiteSpace=wrap;html=1;strokeColor=#36393d;fillColor=#cdeb8b;" vertex="1" parent="1">
          <mxGeometry x="604" y="380" width="80" height="20" as="geometry" />
        </mxCell>
        <mxCell id="ywcK5AgZ8occUSf9UA6o-47" value="Главная ком" style="rounded=0;whiteSpace=wrap;html=1;strokeColor=#36393d;fillColor=#cdeb8b;" vertex="1" parent="1">
          <mxGeometry x="144" y="190" width="80" height="20" as="geometry" />
        </mxCell>
        <mxCell id="ywcK5AgZ8occUSf9UA6o-48" value="Кухня" style="rounded=0;whiteSpace=wrap;html=1;strokeColor=#36393d;fillColor=#cdeb8b;" vertex="1" parent="1">
          <mxGeometry x="144" y="220" width="80" height="20" as="geometry" />
        </mxCell>
        <mxCell id="ywcK5AgZ8occUSf9UA6o-49" value="Санузел" style="rounded=0;whiteSpace=wrap;html=1;strokeColor=#36393d;fillColor=#cdeb8b;" vertex="1" parent="1">
          <mxGeometry x="144" y="250" width="80" height="20" as="geometry" />
        </mxCell>
        <mxCell id="ywcK5AgZ8occUSf9UA6o-50" value="Здание" style="rounded=0;whiteSpace=wrap;html=1;strokeColor=#36393d;fillColor=#cdeb8b;" vertex="1" parent="1">
          <mxGeometry x="144" y="280" width="80" height="20" as="geometry" />
        </mxCell>
        <mxCell id="ywcK5AgZ8occUSf9UA6o-51" value="Главный вх" style="rounded=0;whiteSpace=wrap;html=1;strokeColor=#36393d;fillColor=#cdeb8b;" vertex="1" parent="1">
          <mxGeometry x="144" y="310" width="80" height="20" as="geometry" />
        </mxCell>
        <mxCell id="ywcK5AgZ8occUSf9UA6o-52" value="" style="endArrow=none;html=1;rounded=0;entryX=0.5;entryY=1;entryDx=0;entryDy=0;exitX=1;exitY=0.5;exitDx=0;exitDy=0;curved=1;strokeColor=#82B366;" edge="1" parent="1" source="ywcK5AgZ8occUSf9UA6o-47" target="ywcK5AgZ8occUSf9UA6o-33">
          <mxGeometry width="50" height="50" relative="1" as="geometry">
            <mxPoint x="234" y="210" as="sourcePoint" />
            <mxPoint x="284" y="160" as="targetPoint" />
            <Array as="points">
              <mxPoint x="264" y="190" />
            </Array>
          </mxGeometry>
        </mxCell>
        <mxCell id="ywcK5AgZ8occUSf9UA6o-53" value="" style="endArrow=none;html=1;rounded=0;exitX=1;exitY=0.5;exitDx=0;exitDy=0;curved=1;strokeColor=#82B366;" edge="1" parent="1">
          <mxGeometry width="50" height="50" relative="1" as="geometry">
            <mxPoint x="224" y="230" as="sourcePoint" />
            <mxPoint x="284" y="170" as="targetPoint" />
            <Array as="points">
              <mxPoint x="264" y="220" />
            </Array>
          </mxGeometry>
        </mxCell>
        <mxCell id="ywcK5AgZ8occUSf9UA6o-54" value="" style="endArrow=none;html=1;rounded=0;exitX=1;exitY=0.5;exitDx=0;exitDy=0;curved=1;strokeColor=#82B366;" edge="1" parent="1">
          <mxGeometry width="50" height="50" relative="1" as="geometry">
            <mxPoint x="224" y="260" as="sourcePoint" />
            <mxPoint x="284" y="170" as="targetPoint" />
            <Array as="points">
              <mxPoint x="264" y="250" />
            </Array>
          </mxGeometry>
        </mxCell>
        <mxCell id="ywcK5AgZ8occUSf9UA6o-55" value="" style="endArrow=none;html=1;rounded=0;exitX=1;exitY=0.5;exitDx=0;exitDy=0;curved=1;entryX=0.5;entryY=1;entryDx=0;entryDy=0;strokeColor=#82B366;" edge="1" parent="1" target="ywcK5AgZ8occUSf9UA6o-33">
          <mxGeometry width="50" height="50" relative="1" as="geometry">
            <mxPoint x="224" y="290" as="sourcePoint" />
            <mxPoint x="284" y="200" as="targetPoint" />
            <Array as="points">
              <mxPoint x="264" y="280" />
            </Array>
          </mxGeometry>
        </mxCell>
        <mxCell id="ywcK5AgZ8occUSf9UA6o-56" value="" style="endArrow=none;html=1;rounded=0;exitX=1;exitY=0.5;exitDx=0;exitDy=0;curved=1;strokeColor=#82B366;" edge="1" parent="1">
          <mxGeometry width="50" height="50" relative="1" as="geometry">
            <mxPoint x="224" y="320" as="sourcePoint" />
            <mxPoint x="284" y="170" as="targetPoint" />
            <Array as="points">
              <mxPoint x="264" y="310" />
            </Array>
          </mxGeometry>
        </mxCell>
        <mxCell id="ywcK5AgZ8occUSf9UA6o-57" value="" style="endArrow=none;html=1;rounded=0;exitX=0;exitY=0.5;exitDx=0;exitDy=0;curved=1;strokeColor=#82B366;" edge="1" parent="1" source="ywcK5AgZ8occUSf9UA6o-35">
          <mxGeometry width="50" height="50" relative="1" as="geometry">
            <mxPoint x="453" y="180" as="sourcePoint" />
            <mxPoint x="503" y="130" as="targetPoint" />
            <Array as="points">
              <mxPoint x="544" y="150" />
            </Array>
          </mxGeometry>
        </mxCell>
        <mxCell id="ywcK5AgZ8occUSf9UA6o-58" value="" style="endArrow=none;html=1;rounded=0;exitX=0;exitY=0.5;exitDx=0;exitDy=0;curved=1;strokeColor=#82B366;" edge="1" parent="1" source="ywcK5AgZ8occUSf9UA6o-38">
          <mxGeometry width="50" height="50" relative="1" as="geometry">
            <mxPoint x="604" y="150" as="sourcePoint" />
            <mxPoint x="503" y="130" as="targetPoint" />
            <Array as="points">
              <mxPoint x="524" y="170" />
            </Array>
          </mxGeometry>
        </mxCell>
        <mxCell id="ywcK5AgZ8occUSf9UA6o-59" value="" style="endArrow=none;html=1;rounded=0;exitX=0;exitY=0.5;exitDx=0;exitDy=0;curved=1;strokeColor=#82B366;" edge="1" parent="1" source="ywcK5AgZ8occUSf9UA6o-39">
          <mxGeometry width="50" height="50" relative="1" as="geometry">
            <mxPoint x="604" y="180" as="sourcePoint" />
            <mxPoint x="503" y="130" as="targetPoint" />
            <Array as="points">
              <mxPoint x="514" y="180" />
            </Array>
          </mxGeometry>
        </mxCell>
        <mxCell id="ywcK5AgZ8occUSf9UA6o-60" value="" style="endArrow=none;html=1;rounded=0;exitX=0;exitY=0.5;exitDx=0;exitDy=0;curved=1;strokeColor=#82B366;" edge="1" parent="1" source="ywcK5AgZ8occUSf9UA6o-40">
          <mxGeometry width="50" height="50" relative="1" as="geometry">
            <mxPoint x="604" y="210" as="sourcePoint" />
            <mxPoint x="503" y="130" as="targetPoint" />
            <Array as="points">
              <mxPoint x="504" y="190" />
            </Array>
          </mxGeometry>
        </mxCell>
        <mxCell id="ywcK5AgZ8occUSf9UA6o-61" value="" style="endArrow=none;html=1;rounded=0;exitX=0;exitY=0.5;exitDx=0;exitDy=0;curved=1;strokeColor=#82B366;" edge="1" parent="1" source="ywcK5AgZ8occUSf9UA6o-41">
          <mxGeometry width="50" height="50" relative="1" as="geometry">
            <mxPoint x="604" y="240" as="sourcePoint" />
            <mxPoint x="503" y="130" as="targetPoint" />
            <Array as="points">
              <mxPoint x="494" y="200" />
            </Array>
          </mxGeometry>
        </mxCell>
        <mxCell id="ywcK5AgZ8occUSf9UA6o-62" value="" style="endArrow=none;html=1;rounded=0;exitX=0;exitY=0.5;exitDx=0;exitDy=0;curved=1;strokeColor=#82B366;" edge="1" parent="1" source="ywcK5AgZ8occUSf9UA6o-44">
          <mxGeometry width="50" height="50" relative="1" as="geometry">
            <mxPoint x="604" y="270" as="sourcePoint" />
            <mxPoint x="503" y="130" as="targetPoint" />
            <Array as="points">
              <mxPoint x="484" y="210" />
            </Array>
          </mxGeometry>
        </mxCell>
        <mxCell id="ywcK5AgZ8occUSf9UA6o-63" value="" style="endArrow=none;html=1;rounded=0;curved=1;exitX=0;exitY=0.5;exitDx=0;exitDy=0;strokeColor=#82B366;" edge="1" parent="1" source="ywcK5AgZ8occUSf9UA6o-43">
          <mxGeometry width="50" height="50" relative="1" as="geometry">
            <mxPoint x="594" y="320" as="sourcePoint" />
            <mxPoint x="503" y="130" as="targetPoint" />
            <Array as="points">
              <mxPoint x="474" y="220" />
            </Array>
          </mxGeometry>
        </mxCell>
        <mxCell id="ywcK5AgZ8occUSf9UA6o-64" value="" style="endArrow=none;html=1;rounded=0;curved=1;exitX=0;exitY=0.25;exitDx=0;exitDy=0;strokeColor=#82B366;" edge="1" parent="1" source="ywcK5AgZ8occUSf9UA6o-45">
          <mxGeometry width="50" height="50" relative="1" as="geometry">
            <mxPoint x="604" y="330" as="sourcePoint" />
            <mxPoint x="503" y="130" as="targetPoint" />
            <Array as="points">
              <mxPoint x="464" y="230" />
            </Array>
          </mxGeometry>
        </mxCell>
        <mxCell id="ywcK5AgZ8occUSf9UA6o-65" value="" style="endArrow=none;html=1;rounded=0;curved=1;exitX=0;exitY=0.25;exitDx=0;exitDy=0;strokeColor=#82B366;" edge="1" parent="1" source="ywcK5AgZ8occUSf9UA6o-46">
          <mxGeometry width="50" height="50" relative="1" as="geometry">
            <mxPoint x="604" y="355" as="sourcePoint" />
            <mxPoint x="503" y="130" as="targetPoint" />
            <Array as="points">
              <mxPoint x="454" y="240" />
            </Array>
          </mxGeometry>
        </mxCell>
        <mxCell id="ywcK5AgZ8occUSf9UA6o-95" value="" style="endArrow=none;html=1;rounded=0;exitX=1;exitY=0.5;exitDx=0;exitDy=0;curved=1;entryX=0;entryY=0.5;entryDx=0;entryDy=0;strokeColor=#330066;labelBackgroundColor=none;fontColor=default;" edge="1" parent="1" target="ywcK5AgZ8occUSf9UA6o-110">
          <mxGeometry width="50" height="50" relative="1" as="geometry">
            <mxPoint x="419" y="1200" as="sourcePoint" />
            <mxPoint x="409" y="970" as="targetPoint" />
            <Array as="points">
              <mxPoint x="769" y="1090" />
              <mxPoint x="59" y="1080" />
            </Array>
          </mxGeometry>
        </mxCell>
        <mxCell id="ywcK5AgZ8occUSf9UA6o-96" value="Контроль оплаты" style="rounded=1;whiteSpace=wrap;html=1;fillColor=#EEEEEE;strokeColor=#330066;shadow=1;fontSize=14;fontStyle=1;labelBackgroundColor=none;fontColor=#1A1A1A;" vertex="1" parent="1">
          <mxGeometry x="339" y="1050" width="140" height="70" as="geometry" />
        </mxCell>
        <mxCell id="ywcK5AgZ8occUSf9UA6o-97" value="Квартира" style="rounded=0;whiteSpace=wrap;html=1;fillColor=#EEEEEE;strokeColor=#330066;fontSize=14;labelBackgroundColor=none;fontColor=#1A1A1A;" vertex="1" parent="1">
          <mxGeometry x="159" y="1120" width="90" height="30" as="geometry" />
        </mxCell>
        <mxCell id="ywcK5AgZ8occUSf9UA6o-98" value="Дата оформ" style="rounded=0;whiteSpace=wrap;html=1;fillColor=#EEEEEE;strokeColor=#330066;fontSize=14;labelBackgroundColor=none;fontColor=#1A1A1A;" vertex="1" parent="1">
          <mxGeometry x="159" y="1160" width="90" height="30" as="geometry" />
        </mxCell>
        <mxCell id="ywcK5AgZ8occUSf9UA6o-99" value="Оплач мес" style="rounded=0;whiteSpace=wrap;html=1;fillColor=#EEEEEE;strokeColor=#330066;fontSize=14;labelBackgroundColor=none;fontColor=#1A1A1A;" vertex="1" parent="1">
          <mxGeometry x="159" y="1200" width="90" height="30" as="geometry" />
        </mxCell>
        <mxCell id="ywcK5AgZ8occUSf9UA6o-100" value="Догов мес" style="rounded=0;whiteSpace=wrap;html=1;fillColor=#EEEEEE;strokeColor=#330066;fontSize=14;labelBackgroundColor=none;fontColor=#1A1A1A;" vertex="1" parent="1">
          <mxGeometry x="159" y="1240" width="90" height="30" as="geometry" />
        </mxCell>
        <mxCell id="ywcK5AgZ8occUSf9UA6o-101" value="ФИО" style="rounded=0;whiteSpace=wrap;html=1;fillColor=#EEEEEE;strokeColor=#330066;fontSize=14;labelBackgroundColor=none;fontColor=#1A1A1A;" vertex="1" parent="1">
          <mxGeometry x="579" y="930" width="80" height="30" as="geometry" />
        </mxCell>
        <mxCell id="ywcK5AgZ8occUSf9UA6o-102" value="Телефон" style="rounded=0;whiteSpace=wrap;html=1;fillColor=#EEEEEE;strokeColor=#330066;fontSize=14;labelBackgroundColor=none;fontColor=#1A1A1A;" vertex="1" parent="1">
          <mxGeometry x="579" y="990" width="80" height="30" as="geometry" />
        </mxCell>
        <mxCell id="ywcK5AgZ8occUSf9UA6o-103" value="" style="endArrow=none;html=1;rounded=0;entryX=0;entryY=0.5;entryDx=0;entryDy=0;exitX=1;exitY=0.5;exitDx=0;exitDy=0;curved=1;strokeColor=#330066;labelBackgroundColor=none;fontColor=default;" edge="1" parent="1" source="ywcK5AgZ8occUSf9UA6o-98" target="ywcK5AgZ8occUSf9UA6o-109">
          <mxGeometry width="50" height="50" relative="1" as="geometry">
            <mxPoint x="279" y="1190" as="sourcePoint" />
            <mxPoint x="329" y="1140" as="targetPoint" />
            <Array as="points">
              <mxPoint x="489" y="1130" />
            </Array>
          </mxGeometry>
        </mxCell>
        <mxCell id="ywcK5AgZ8occUSf9UA6o-104" value="" style="endArrow=none;html=1;rounded=0;entryX=0;entryY=0.5;entryDx=0;entryDy=0;exitX=1;exitY=0.5;exitDx=0;exitDy=0;curved=1;strokeColor=#330066;labelBackgroundColor=none;fontColor=default;" edge="1" parent="1" source="ywcK5AgZ8occUSf9UA6o-99" target="ywcK5AgZ8occUSf9UA6o-109">
          <mxGeometry width="50" height="50" relative="1" as="geometry">
            <mxPoint x="249" y="1180" as="sourcePoint" />
            <mxPoint x="419" y="1200" as="targetPoint" />
            <Array as="points">
              <mxPoint x="479" y="1260" />
            </Array>
          </mxGeometry>
        </mxCell>
        <mxCell id="ywcK5AgZ8occUSf9UA6o-105" value="" style="endArrow=none;html=1;rounded=0;exitX=1;exitY=0.5;exitDx=0;exitDy=0;curved=1;strokeColor=#330066;labelBackgroundColor=none;fontColor=default;" edge="1" parent="1" source="ywcK5AgZ8occUSf9UA6o-97">
          <mxGeometry width="50" height="50" relative="1" as="geometry">
            <mxPoint x="249" y="1170" as="sourcePoint" />
            <mxPoint x="399" y="1170" as="targetPoint" />
            <Array as="points">
              <mxPoint x="509" y="1140" />
            </Array>
          </mxGeometry>
        </mxCell>
        <mxCell id="ywcK5AgZ8occUSf9UA6o-106" value="" style="endArrow=none;html=1;rounded=0;entryX=0.75;entryY=1;entryDx=0;entryDy=0;exitX=1;exitY=0.5;exitDx=0;exitDy=0;curved=1;strokeColor=#330066;labelBackgroundColor=none;fontColor=default;" edge="1" parent="1" source="ywcK5AgZ8occUSf9UA6o-100" target="ywcK5AgZ8occUSf9UA6o-109">
          <mxGeometry width="50" height="50" relative="1" as="geometry">
            <mxPoint x="249" y="1215" as="sourcePoint" />
            <mxPoint x="419" y="1200" as="targetPoint" />
            <Array as="points">
              <mxPoint x="499" y="1240" />
            </Array>
          </mxGeometry>
        </mxCell>
        <mxCell id="ywcK5AgZ8occUSf9UA6o-107" value="" style="endArrow=none;html=1;rounded=0;entryX=1;entryY=0.5;entryDx=0;entryDy=0;exitX=0;exitY=0.5;exitDx=0;exitDy=0;curved=1;strokeColor=#330066;labelBackgroundColor=none;fontColor=default;" edge="1" parent="1" source="ywcK5AgZ8occUSf9UA6o-101" target="ywcK5AgZ8occUSf9UA6o-110">
          <mxGeometry width="50" height="50" relative="1" as="geometry">
            <mxPoint x="235" y="957.5" as="sourcePoint" />
            <mxPoint x="405" y="977.5" as="targetPoint" />
            <Array as="points">
              <mxPoint x="309" y="920" />
            </Array>
          </mxGeometry>
        </mxCell>
        <mxCell id="ywcK5AgZ8occUSf9UA6o-108" value="" style="endArrow=none;html=1;rounded=0;entryX=1;entryY=0.5;entryDx=0;entryDy=0;exitX=0;exitY=0.5;exitDx=0;exitDy=0;curved=1;strokeColor=#330066;labelBackgroundColor=none;fontColor=default;" edge="1" parent="1" source="ywcK5AgZ8occUSf9UA6o-102" target="ywcK5AgZ8occUSf9UA6o-110">
          <mxGeometry width="50" height="50" relative="1" as="geometry">
            <mxPoint x="579" y="945" as="sourcePoint" />
            <mxPoint x="409" y="975" as="targetPoint" />
            <Array as="points">
              <mxPoint x="309" y="1030" />
            </Array>
          </mxGeometry>
        </mxCell>
        <mxCell id="ywcK5AgZ8occUSf9UA6o-109" value="Договоры" style="rounded=1;whiteSpace=wrap;html=1;fillColor=#EEEEEE;strokeColor=#330066;shadow=1;fontSize=14;fontStyle=1;labelBackgroundColor=none;fontColor=#1A1A1A;" vertex="1" parent="1">
          <mxGeometry x="329" y="1170" width="90" height="50" as="geometry" />
        </mxCell>
        <mxCell id="ywcK5AgZ8occUSf9UA6o-110" value="Клиенты" style="rounded=1;whiteSpace=wrap;html=1;fillColor=#EEEEEE;strokeColor=#330066;shadow=1;fontSize=14;fontStyle=1;labelBackgroundColor=none;fontColor=#1A1A1A;" vertex="1" parent="1">
          <mxGeometry x="409" y="950" width="90" height="50" as="geometry" />
        </mxCell>
        <mxCell id="ywcK5AgZ8occUSf9UA6o-111" value="&lt;h4&gt;Отдел по покупке&amp;nbsp;&lt;/h4&gt;&lt;h4&gt;недвижимости&lt;/h4&gt;" style="shape=umlActor;verticalLabelPosition=bottom;verticalAlign=top;html=1;outlineConnect=0;" vertex="1" parent="1">
          <mxGeometry x="-46" y="1370" width="40" height="80" as="geometry" />
        </mxCell>
        <mxCell id="ywcK5AgZ8occUSf9UA6o-112" value="&lt;h4&gt;Отдел по работе&amp;nbsp;&amp;nbsp;&lt;/h4&gt;&lt;h4&gt;с клиентами&lt;/h4&gt;" style="shape=umlActor;verticalLabelPosition=bottom;verticalAlign=top;html=1;outlineConnect=0;" vertex="1" parent="1">
          <mxGeometry x="-46" y="1770" width="40" height="80" as="geometry" />
        </mxCell>
        <mxCell id="ywcK5AgZ8occUSf9UA6o-113" value="&lt;h4&gt;Покупка квартиры&lt;/h4&gt;" style="ellipse;whiteSpace=wrap;html=1;fillColor=#dae8fc;strokeColor=#6c8ebf;" vertex="1" parent="1">
          <mxGeometry x="84" y="1330" width="120" height="80" as="geometry" />
        </mxCell>
        <mxCell id="ywcK5AgZ8occUSf9UA6o-114" value="&lt;h4&gt;Регистрация квартиры&lt;/h4&gt;" style="ellipse;whiteSpace=wrap;html=1;fillColor=#dae8fc;strokeColor=#6c8ebf;" vertex="1" parent="1">
          <mxGeometry x="74" y="1430" width="120" height="80" as="geometry" />
        </mxCell>
        <mxCell id="ywcK5AgZ8occUSf9UA6o-115" value="&lt;h4&gt;Внесение квартиры в базу данных&lt;/h4&gt;" style="ellipse;whiteSpace=wrap;html=1;fillColor=#dae8fc;strokeColor=#6c8ebf;" vertex="1" parent="1">
          <mxGeometry x="104" y="1530" width="120" height="80" as="geometry" />
        </mxCell>
        <mxCell id="ywcK5AgZ8occUSf9UA6o-116" value="&lt;h4&gt;Оценка&amp;nbsp; квартиры и благоустройства района&lt;/h4&gt;" style="ellipse;whiteSpace=wrap;html=1;fillColor=#dae8fc;strokeColor=#6c8ebf;" vertex="1" parent="1">
          <mxGeometry x="114" y="1630" width="120" height="80" as="geometry" />
        </mxCell>
        <mxCell id="ywcK5AgZ8occUSf9UA6o-117" value="&lt;h4&gt;Поиск потенциальных клиентов&lt;/h4&gt;" style="ellipse;whiteSpace=wrap;html=1;fillColor=#dae8fc;strokeColor=#6c8ebf;" vertex="1" parent="1">
          <mxGeometry x="74" y="1730" width="120" height="80" as="geometry" />
        </mxCell>
        <mxCell id="ywcK5AgZ8occUSf9UA6o-118" value="&lt;h4&gt;Первичное обсуждение желаний клиента&lt;/h4&gt;" style="ellipse;whiteSpace=wrap;html=1;fillColor=#dae8fc;strokeColor=#6c8ebf;" vertex="1" parent="1">
          <mxGeometry x="84" y="1834.5" width="120" height="80" as="geometry" />
        </mxCell>
        <mxCell id="ywcK5AgZ8occUSf9UA6o-119" value="&lt;h4&gt;Подбор подходящей квартиры&lt;/h4&gt;" style="ellipse;whiteSpace=wrap;html=1;fillColor=#dae8fc;strokeColor=#6c8ebf;" vertex="1" parent="1">
          <mxGeometry x="104" y="1930" width="120" height="80" as="geometry" />
        </mxCell>
        <mxCell id="ywcK5AgZ8occUSf9UA6o-120" value="&lt;h4&gt;Добавление клиента в базу данных&lt;/h4&gt;" style="ellipse;whiteSpace=wrap;html=1;fillColor=#dae8fc;strokeColor=#6c8ebf;" vertex="1" parent="1">
          <mxGeometry x="114" y="2020" width="120" height="80" as="geometry" />
        </mxCell>
        <mxCell id="ywcK5AgZ8occUSf9UA6o-121" value="&lt;h4&gt;Оценщик квартиры&lt;/h4&gt;" style="shape=umlActor;verticalLabelPosition=bottom;verticalAlign=top;html=1;outlineConnect=0;" vertex="1" parent="1">
          <mxGeometry x="314" y="1570" width="40" height="80" as="geometry" />
        </mxCell>
        <mxCell id="ywcK5AgZ8occUSf9UA6o-122" value="&lt;h4&gt;Агент по&amp;nbsp;&lt;/h4&gt;&lt;h4&gt;недвижимости&lt;/h4&gt;" style="shape=umlActor;verticalLabelPosition=bottom;verticalAlign=top;html=1;outlineConnect=0;" vertex="1" parent="1">
          <mxGeometry x="314" y="1890" width="40" height="80" as="geometry" />
        </mxCell>
        <mxCell id="ywcK5AgZ8occUSf9UA6o-123" value="&lt;h4&gt;Вычисление скидки&lt;/h4&gt;" style="ellipse;whiteSpace=wrap;html=1;fillColor=#dae8fc;strokeColor=#6c8ebf;" vertex="1" parent="1">
          <mxGeometry x="434" y="1330" width="120" height="80" as="geometry" />
        </mxCell>
        <mxCell id="ywcK5AgZ8occUSf9UA6o-124" value="&lt;h4&gt;Проверка документов&lt;/h4&gt;" style="ellipse;whiteSpace=wrap;html=1;fillColor=#dae8fc;strokeColor=#6c8ebf;" vertex="1" parent="1">
          <mxGeometry x="424" y="1430" width="120" height="80" as="geometry" />
        </mxCell>
        <mxCell id="ywcK5AgZ8occUSf9UA6o-125" value="&lt;h4&gt;Составление договора&lt;/h4&gt;" style="ellipse;whiteSpace=wrap;html=1;fillColor=#dae8fc;strokeColor=#6c8ebf;" vertex="1" parent="1">
          <mxGeometry x="454" y="1530" width="120" height="80" as="geometry" />
        </mxCell>
        <mxCell id="ywcK5AgZ8occUSf9UA6o-126" value="&lt;h4&gt;Вызов клининга в квартиру&lt;/h4&gt;" style="ellipse;whiteSpace=wrap;html=1;fillColor=#dae8fc;strokeColor=#6c8ebf;" vertex="1" parent="1">
          <mxGeometry x="464" y="1630" width="120" height="80" as="geometry" />
        </mxCell>
        <mxCell id="ywcK5AgZ8occUSf9UA6o-127" value="&lt;h4&gt;Согласовывание квартиры с клиентом&lt;/h4&gt;" style="ellipse;whiteSpace=wrap;html=1;fillColor=#dae8fc;strokeColor=#6c8ebf;" vertex="1" parent="1">
          <mxGeometry x="424" y="1730" width="120" height="80" as="geometry" />
        </mxCell>
        <mxCell id="ywcK5AgZ8occUSf9UA6o-128" value="&lt;h4&gt;Составление запроса о новом договоре&lt;/h4&gt;" style="ellipse;whiteSpace=wrap;html=1;fillColor=#dae8fc;strokeColor=#6c8ebf;" vertex="1" parent="1">
          <mxGeometry x="434" y="1834.5" width="120" height="80" as="geometry" />
        </mxCell>
        <mxCell id="ywcK5AgZ8occUSf9UA6o-129" value="&lt;h4&gt;Согласовывание времени встречи&lt;/h4&gt;" style="ellipse;whiteSpace=wrap;html=1;fillColor=#dae8fc;strokeColor=#6c8ebf;" vertex="1" parent="1">
          <mxGeometry x="454" y="1930" width="120" height="80" as="geometry" />
        </mxCell>
        <mxCell id="ywcK5AgZ8occUSf9UA6o-130" value="&lt;h4&gt;Связь с клиентом&lt;/h4&gt;" style="ellipse;whiteSpace=wrap;html=1;fillColor=#dae8fc;strokeColor=#6c8ebf;" vertex="1" parent="1">
          <mxGeometry x="464" y="2020" width="120" height="80" as="geometry" />
        </mxCell>
        <mxCell id="ywcK5AgZ8occUSf9UA6o-131" value="&lt;h4&gt;Менеджер по&amp;nbsp;&lt;/h4&gt;&lt;h4&gt;составлению договоров&lt;/h4&gt;" style="shape=umlActor;verticalLabelPosition=bottom;verticalAlign=top;html=1;outlineConnect=0;" vertex="1" parent="1">
          <mxGeometry x="634" y="1370" width="40" height="80" as="geometry" />
        </mxCell>
        <mxCell id="ywcK5AgZ8occUSf9UA6o-132" value="&lt;h4&gt;Внесение договора в базу данных&lt;/h4&gt;" style="ellipse;whiteSpace=wrap;html=1;fillColor=#dae8fc;strokeColor=#6c8ebf;" vertex="1" parent="1">
          <mxGeometry x="754" y="1330" width="120" height="80" as="geometry" />
        </mxCell>
        <mxCell id="ywcK5AgZ8occUSf9UA6o-133" value="&lt;h4&gt;Отдел финансов&lt;/h4&gt;" style="shape=umlActor;verticalLabelPosition=bottom;verticalAlign=top;html=1;outlineConnect=0;" vertex="1" parent="1">
          <mxGeometry x="914" y="1530" width="40" height="80" as="geometry" />
        </mxCell>
        <mxCell id="ywcK5AgZ8occUSf9UA6o-134" value="&lt;h4&gt;Отчёт об оплате&lt;/h4&gt;" style="ellipse;whiteSpace=wrap;html=1;fillColor=#dae8fc;strokeColor=#6c8ebf;" vertex="1" parent="1">
          <mxGeometry x="754" y="1640" width="120" height="80" as="geometry" />
        </mxCell>
        <mxCell id="ywcK5AgZ8occUSf9UA6o-135" value="&lt;h4&gt;Контроль своевременной оплаты&lt;/h4&gt;" style="ellipse;whiteSpace=wrap;html=1;fillColor=#dae8fc;strokeColor=#6c8ebf;" vertex="1" parent="1">
          <mxGeometry x="764" y="1740" width="120" height="80" as="geometry" />
        </mxCell>
        <mxCell id="ywcK5AgZ8occUSf9UA6o-136" value="&lt;h4&gt;Вызов сотрудников для проверки на отсут нарушений&lt;/h4&gt;" style="ellipse;whiteSpace=wrap;html=1;fillColor=#dae8fc;strokeColor=#6c8ebf;" vertex="1" parent="1">
          <mxGeometry x="774" y="1844.5" width="120" height="80" as="geometry" />
        </mxCell>
        <mxCell id="ywcK5AgZ8occUSf9UA6o-137" value="&lt;h4&gt;Отчёт о должниках&lt;/h4&gt;" style="ellipse;whiteSpace=wrap;html=1;fillColor=#dae8fc;strokeColor=#6c8ebf;" vertex="1" parent="1">
          <mxGeometry x="794" y="1940" width="120" height="80" as="geometry" />
        </mxCell>
        <mxCell id="ywcK5AgZ8occUSf9UA6o-138" value="&lt;h4&gt;Ответственный за&amp;nbsp;&lt;/h4&gt;&lt;h4&gt;соблюдение договора&lt;/h4&gt;" style="shape=umlActor;verticalLabelPosition=bottom;verticalAlign=top;html=1;outlineConnect=0;" vertex="1" parent="1">
          <mxGeometry x="634" y="1770" width="40" height="80" as="geometry" />
        </mxCell>
        <mxCell id="ywcK5AgZ8occUSf9UA6o-139" value="" style="endArrow=none;html=1;rounded=0;entryX=0;entryY=0.5;entryDx=0;entryDy=0;" edge="1" parent="1" target="ywcK5AgZ8occUSf9UA6o-113">
          <mxGeometry width="50" height="50" relative="1" as="geometry">
            <mxPoint x="4" y="1400" as="sourcePoint" />
            <mxPoint x="24" y="1360" as="targetPoint" />
          </mxGeometry>
        </mxCell>
        <mxCell id="ywcK5AgZ8occUSf9UA6o-140" value="" style="endArrow=none;html=1;rounded=0;entryX=0;entryY=0.5;entryDx=0;entryDy=0;" edge="1" parent="1" target="ywcK5AgZ8occUSf9UA6o-114">
          <mxGeometry width="50" height="50" relative="1" as="geometry">
            <mxPoint x="4" y="1420" as="sourcePoint" />
            <mxPoint x="54" y="1360" as="targetPoint" />
          </mxGeometry>
        </mxCell>
        <mxCell id="ywcK5AgZ8occUSf9UA6o-141" value="" style="endArrow=none;html=1;rounded=0;" edge="1" parent="1">
          <mxGeometry width="50" height="50" relative="1" as="geometry">
            <mxPoint x="224" y="1570" as="sourcePoint" />
            <mxPoint x="294" y="1600" as="targetPoint" />
          </mxGeometry>
        </mxCell>
        <mxCell id="ywcK5AgZ8occUSf9UA6o-142" value="" style="endArrow=none;html=1;rounded=0;" edge="1" parent="1">
          <mxGeometry width="50" height="50" relative="1" as="geometry">
            <mxPoint x="234" y="1670" as="sourcePoint" />
            <mxPoint x="294" y="1620" as="targetPoint" />
          </mxGeometry>
        </mxCell>
        <mxCell id="ywcK5AgZ8occUSf9UA6o-143" value="" style="endArrow=none;html=1;rounded=0;entryX=0;entryY=0.5;entryDx=0;entryDy=0;" edge="1" parent="1" target="ywcK5AgZ8occUSf9UA6o-117">
          <mxGeometry width="50" height="50" relative="1" as="geometry">
            <mxPoint x="4" y="1794.5" as="sourcePoint" />
            <mxPoint x="74" y="1834.5" as="targetPoint" />
          </mxGeometry>
        </mxCell>
        <mxCell id="ywcK5AgZ8occUSf9UA6o-144" value="" style="endArrow=none;html=1;rounded=0;entryX=0;entryY=0.5;entryDx=0;entryDy=0;" edge="1" parent="1" target="ywcK5AgZ8occUSf9UA6o-118">
          <mxGeometry width="50" height="50" relative="1" as="geometry">
            <mxPoint x="4" y="1810" as="sourcePoint" />
            <mxPoint x="74" y="1870" as="targetPoint" />
          </mxGeometry>
        </mxCell>
        <mxCell id="ywcK5AgZ8occUSf9UA6o-145" value="" style="endArrow=none;html=1;rounded=0;" edge="1" parent="1">
          <mxGeometry width="50" height="50" relative="1" as="geometry">
            <mxPoint x="204" y="1874.5" as="sourcePoint" />
            <mxPoint x="294" y="1920" as="targetPoint" />
          </mxGeometry>
        </mxCell>
        <mxCell id="ywcK5AgZ8occUSf9UA6o-146" value="" style="endArrow=none;html=1;rounded=0;" edge="1" parent="1">
          <mxGeometry width="50" height="50" relative="1" as="geometry">
            <mxPoint x="224" y="1970" as="sourcePoint" />
            <mxPoint x="294" y="1940" as="targetPoint" />
          </mxGeometry>
        </mxCell>
        <mxCell id="ywcK5AgZ8occUSf9UA6o-147" value="" style="endArrow=none;html=1;rounded=0;" edge="1" parent="1">
          <mxGeometry width="50" height="50" relative="1" as="geometry">
            <mxPoint x="234" y="2060" as="sourcePoint" />
            <mxPoint x="294" y="1960" as="targetPoint" />
          </mxGeometry>
        </mxCell>
        <mxCell id="ywcK5AgZ8occUSf9UA6o-148" value="" style="endArrow=none;html=1;rounded=0;entryX=0;entryY=0;entryDx=0;entryDy=0;" edge="1" parent="1" target="ywcK5AgZ8occUSf9UA6o-126">
          <mxGeometry width="50" height="50" relative="1" as="geometry">
            <mxPoint x="364" y="1610" as="sourcePoint" />
            <mxPoint x="434" y="1640" as="targetPoint" />
          </mxGeometry>
        </mxCell>
        <mxCell id="ywcK5AgZ8occUSf9UA6o-149" value="" style="endArrow=none;html=1;rounded=0;entryX=0;entryY=1;entryDx=0;entryDy=0;" edge="1" parent="1" target="ywcK5AgZ8occUSf9UA6o-127">
          <mxGeometry width="50" height="50" relative="1" as="geometry">
            <mxPoint x="374" y="1920" as="sourcePoint" />
            <mxPoint x="434" y="1820" as="targetPoint" />
          </mxGeometry>
        </mxCell>
        <mxCell id="ywcK5AgZ8occUSf9UA6o-150" value="" style="endArrow=none;html=1;rounded=0;entryX=0;entryY=0.5;entryDx=0;entryDy=0;" edge="1" parent="1" target="ywcK5AgZ8occUSf9UA6o-128">
          <mxGeometry width="50" height="50" relative="1" as="geometry">
            <mxPoint x="374" y="1940" as="sourcePoint" />
            <mxPoint x="434" y="1840" as="targetPoint" />
          </mxGeometry>
        </mxCell>
        <mxCell id="ywcK5AgZ8occUSf9UA6o-151" value="" style="endArrow=none;html=1;rounded=0;entryX=0;entryY=0.5;entryDx=0;entryDy=0;" edge="1" parent="1" target="ywcK5AgZ8occUSf9UA6o-130">
          <mxGeometry width="50" height="50" relative="1" as="geometry">
            <mxPoint x="374" y="1960" as="sourcePoint" />
            <mxPoint x="434" y="1897.5" as="targetPoint" />
          </mxGeometry>
        </mxCell>
        <mxCell id="ywcK5AgZ8occUSf9UA6o-152" value="" style="endArrow=none;html=1;rounded=0;" edge="1" parent="1">
          <mxGeometry width="50" height="50" relative="1" as="geometry">
            <mxPoint x="554" y="1370" as="sourcePoint" />
            <mxPoint x="614" y="1402" as="targetPoint" />
          </mxGeometry>
        </mxCell>
        <mxCell id="ywcK5AgZ8occUSf9UA6o-153" value="" style="endArrow=none;html=1;rounded=0;" edge="1" parent="1">
          <mxGeometry width="50" height="50" relative="1" as="geometry">
            <mxPoint x="544" y="1470" as="sourcePoint" />
            <mxPoint x="614" y="1420" as="targetPoint" />
          </mxGeometry>
        </mxCell>
        <mxCell id="ywcK5AgZ8occUSf9UA6o-154" value="" style="endArrow=none;html=1;rounded=0;exitX=1;exitY=0;exitDx=0;exitDy=0;" edge="1" parent="1" source="ywcK5AgZ8occUSf9UA6o-125">
          <mxGeometry width="50" height="50" relative="1" as="geometry">
            <mxPoint x="544" y="1540" as="sourcePoint" />
            <mxPoint x="614" y="1440" as="targetPoint" />
          </mxGeometry>
        </mxCell>
        <mxCell id="ywcK5AgZ8occUSf9UA6o-155" value="" style="endArrow=none;html=1;rounded=0;entryX=0;entryY=0.5;entryDx=0;entryDy=0;" edge="1" parent="1" target="ywcK5AgZ8occUSf9UA6o-132">
          <mxGeometry width="50" height="50" relative="1" as="geometry">
            <mxPoint x="684" y="1410" as="sourcePoint" />
            <mxPoint x="754" y="1360" as="targetPoint" />
          </mxGeometry>
        </mxCell>
        <mxCell id="ywcK5AgZ8occUSf9UA6o-156" value="" style="endArrow=none;html=1;rounded=0;fillColor=#dae8fc;strokeColor=#000000;" edge="1" parent="1">
          <mxGeometry width="50" height="50" relative="1" as="geometry">
            <mxPoint x="894" y="1560" as="sourcePoint" />
            <mxPoint x="812" y="1410" as="targetPoint" />
          </mxGeometry>
        </mxCell>
        <mxCell id="ywcK5AgZ8occUSf9UA6o-157" value="" style="endArrow=none;html=1;rounded=0;exitX=0.5;exitY=0;exitDx=0;exitDy=0;fillColor=#dae8fc;strokeColor=#000000;" edge="1" parent="1" source="ywcK5AgZ8occUSf9UA6o-134">
          <mxGeometry width="50" height="50" relative="1" as="geometry">
            <mxPoint x="824" y="1630" as="sourcePoint" />
            <mxPoint x="894" y="1580" as="targetPoint" />
          </mxGeometry>
        </mxCell>
        <mxCell id="ywcK5AgZ8occUSf9UA6o-158" value="" style="endArrow=none;html=1;rounded=0;entryX=0;entryY=1;entryDx=0;entryDy=0;" edge="1" parent="1" target="ywcK5AgZ8occUSf9UA6o-134">
          <mxGeometry width="50" height="50" relative="1" as="geometry">
            <mxPoint x="684" y="1800" as="sourcePoint" />
            <mxPoint x="754" y="1680" as="targetPoint" />
          </mxGeometry>
        </mxCell>
        <mxCell id="ywcK5AgZ8occUSf9UA6o-159" value="" style="endArrow=none;html=1;rounded=0;entryX=0;entryY=0.5;entryDx=0;entryDy=0;" edge="1" parent="1" target="ywcK5AgZ8occUSf9UA6o-135">
          <mxGeometry width="50" height="50" relative="1" as="geometry">
            <mxPoint x="686" y="1812" as="sourcePoint" />
            <mxPoint x="774" y="1730" as="targetPoint" />
          </mxGeometry>
        </mxCell>
        <mxCell id="ywcK5AgZ8occUSf9UA6o-160" value="" style="endArrow=none;html=1;rounded=0;entryX=0;entryY=0.5;entryDx=0;entryDy=0;" edge="1" parent="1" target="ywcK5AgZ8occUSf9UA6o-136">
          <mxGeometry width="50" height="50" relative="1" as="geometry">
            <mxPoint x="686" y="1820" as="sourcePoint" />
            <mxPoint x="764" y="1880" as="targetPoint" />
          </mxGeometry>
        </mxCell>
        <mxCell id="ywcK5AgZ8occUSf9UA6o-161" value="" style="endArrow=none;html=1;rounded=0;entryX=0;entryY=0;entryDx=0;entryDy=0;" edge="1" parent="1" target="ywcK5AgZ8occUSf9UA6o-137">
          <mxGeometry width="50" height="50" relative="1" as="geometry">
            <mxPoint x="686" y="1834.5" as="sourcePoint" />
            <mxPoint x="774" y="1899.5" as="targetPoint" />
          </mxGeometry>
        </mxCell>
        <mxCell id="ywcK5AgZ8occUSf9UA6o-162" value="" style="endArrow=none;html=1;rounded=0;entryX=1;entryY=0;entryDx=0;entryDy=0;" edge="1" parent="1" target="ywcK5AgZ8occUSf9UA6o-130">
          <mxGeometry width="50" height="50" relative="1" as="geometry">
            <mxPoint x="634" y="1930" as="sourcePoint" />
            <mxPoint x="780" y="2042" as="targetPoint" />
          </mxGeometry>
        </mxCell>
        <mxCell id="ywcK5AgZ8occUSf9UA6o-163" value="" style="endArrow=none;html=1;rounded=0;entryX=1;entryY=0;entryDx=0;entryDy=0;" edge="1" parent="1" target="ywcK5AgZ8occUSf9UA6o-129">
          <mxGeometry width="50" height="50" relative="1" as="geometry">
            <mxPoint x="644" y="1530" as="sourcePoint" />
            <mxPoint x="544" y="1940" as="targetPoint" />
          </mxGeometry>
        </mxCell>
        <mxCell id="ywcK5AgZ8occUSf9UA6o-164" value="" style="endArrow=none;html=1;rounded=0;entryX=1;entryY=0;entryDx=0;entryDy=0;" edge="1" parent="1" target="ywcK5AgZ8occUSf9UA6o-128">
          <mxGeometry width="50" height="50" relative="1" as="geometry">
            <mxPoint x="634" y="1530" as="sourcePoint" />
            <mxPoint x="526" y="1840" as="targetPoint" />
          </mxGeometry>
        </mxCell>
        <mxCell id="ywcK5AgZ8occUSf9UA6o-165" value="" style="endArrow=none;html=1;rounded=0;" edge="1" parent="1">
          <mxGeometry width="50" height="50" relative="1" as="geometry">
            <mxPoint x="574" y="1690" as="sourcePoint" />
            <mxPoint x="624" y="1790" as="targetPoint" />
          </mxGeometry>
        </mxCell>
        <mxCell id="ywcK5AgZ8occUSf9UA6o-166" value="" style="endArrow=none;html=1;rounded=0;" edge="1" parent="1">
          <mxGeometry width="50" height="50" relative="1" as="geometry">
            <mxPoint x="544" y="1770" as="sourcePoint" />
            <mxPoint x="624" y="1800" as="targetPoint" />
          </mxGeometry>
        </mxCell>
        <mxCell id="ywcK5AgZ8occUSf9UA6o-167" value="" style="endArrow=none;html=1;rounded=0;exitX=1;exitY=0.5;exitDx=0;exitDy=0;" edge="1" parent="1" source="ywcK5AgZ8occUSf9UA6o-128">
          <mxGeometry width="50" height="50" relative="1" as="geometry">
            <mxPoint x="554" y="1875" as="sourcePoint" />
            <mxPoint x="624" y="1810" as="targetPoint" />
          </mxGeometry>
        </mxCell>
        <mxCell id="ywcK5AgZ8occUSf9UA6o-168" value="" style="endArrow=none;html=1;rounded=0;entryX=0;entryY=0.5;entryDx=0;entryDy=0;" edge="1" parent="1" target="ywcK5AgZ8occUSf9UA6o-129">
          <mxGeometry width="50" height="50" relative="1" as="geometry">
            <mxPoint x="374" y="1950" as="sourcePoint" />
            <mxPoint x="434" y="1885" as="targetPoint" />
          </mxGeometry>
        </mxCell>
      </root>
    </mxGraphModel>
  </diagram>
</mxfile>
